<?xml version="1.0" encoding="UTF-8" standalone="no"?>
<svg width="842px" height="473px" viewBox="0 0 842 473" version="1.1" xmlns="http://www.w3.org/2000/svg" xmlns:xlink="http://www.w3.org/1999/xlink" xmlns:sketch="http://www.bohemiancoding.com/sketch/ns">
    <!-- Generator: Sketch 3.3.3 (12081) - http://www.bohemiancoding.com/sketch -->
    <title>fancy styles</title>
    <desc>Created with Sketch.</desc>
    <defs>
        <linearGradient x1="50%" y1="3.27447385%" x2="50%" y2="100%" id="linearGradient-1">
            <stop stop-color="#7CAEE8" offset="0%"></stop>
            <stop stop-color="#000000" offset="48.824139%"></stop>
            <stop stop-color="#4A90E2" offset="100%"></stop>
        </linearGradient>
        <rect id="path-2" x="60.0867683" y="60.3885545" width="287.544059" height="287.203146"></rect>
        <rect id="path-3" x="466.961611" y="60.3885545" width="287.544059" height="287.203146"></rect>
        <linearGradient x1="50%" y1="4.93217185%" x2="96.7829585%" y2="0%" id="linearGradient-4">
            <stop stop-color="#4A90E2" stop-opacity="0" offset="0%"></stop>
            <stop stop-color="#4A90E2" offset="69.1924426%"></stop>
        </linearGradient>
        <linearGradient x1="50%" y1="0%" x2="17.016208%" y2="0%" id="linearGradient-5">
            <stop stop-color="#5495E0" stop-opacity="0" offset="0%"></stop>
            <stop stop-color="#4A90E2" offset="100%"></stop>
        </linearGradient>
        <linearGradient x1="50%" y1="4.93217185%" x2="53.854882%" y2="4.93217185%" id="linearGradient-6">
            <stop stop-color="#4A90E2" stop-opacity="0" offset="0%"></stop>
            <stop stop-color="#FFFFFF" offset="100%"></stop>
        </linearGradient>
        <linearGradient x1="44.1841803%" y1="0%" x2="42.6617888%" y2="0%" id="linearGradient-7">
            <stop stop-color="#4A90E2" stop-opacity="0" offset="0%"></stop>
            <stop stop-color="#FFFFFF" offset="100%"></stop>
        </linearGradient>
        <linearGradient x1="41.2430898%" y1="0%" x2="96.7829585%" y2="0%" id="linearGradient-8">
            <stop stop-color="#4A90E2" stop-opacity="0" offset="0%"></stop>
            <stop stop-color="#000000" offset="27.0714163%"></stop>
            <stop stop-color="#4A90E2" offset="100%"></stop>
        </linearGradient>
        <linearGradient x1="3.39749541%" y1="0%" x2="53.0510898%" y2="0%" id="linearGradient-9">
            <stop stop-color="#4A90E2" offset="0%"></stop>
            <stop stop-color="#000000" offset="81.0948484%"></stop>
            <stop stop-color="#5495E0" stop-opacity="0" offset="100%"></stop>
        </linearGradient>
    </defs>
    <g id="Page-1" stroke="none" stroke-width="1" fill="none" fill-rule="evenodd" sketch:type="MSPage">
        <g id="Process" sketch:type="MSArtboardGroup" transform="translate(0.000000, -11.000000)">
            <g id="fancy-styles" sketch:type="MSLayerGroup" transform="translate(-155.000000, 41.000000)">
                <g id="diamonds" transform="translate(170.000000, 0.000000)">
                    <g id="Rectangle-241">
                        <use stroke="none" sketch:type="MSShapeGroup" xlink:href="#path-2"></use>
                        <use stroke="url(#linearGradient-1)" stroke-width="1" xlink:href="#path-2"></use>
                    </g>
                    <g id="Rectangle-241-Copy">
                        <use stroke="none" sketch:type="MSShapeGroup" xlink:href="#path-3"></use>
                        <use stroke="url(#linearGradient-1)" stroke-width="1" xlink:href="#path-3"></use>
                    </g>
                </g>
                <g id="wavelines" transform="translate(171.000000, 148.000000)" sketch:type="MSShapeGroup" stroke-linecap="square">
                    <path d="M-6.13187037e-17,56.5 C-6.13187037e-17,56.5 198.860207,181.507814 406.223845,56.5 C613.587484,-68.5078139 813,56.5 813,56.5" id="right-1-dots-copy" stroke="url(#linearGradient-4)" stroke-width="27" stroke-dasharray="1,98"></path>
                    <path d="M-6.13187037e-17,56.5590284 C-6.13187037e-17,56.5590284 198.860207,181.566842 406.223845,56.5590284 C613.587484,-68.4487855 813,56.5590284 813,56.5590284" id="left-1-dots-copy" stroke="url(#linearGradient-5)" stroke-width="23" stroke-dasharray="1,85"></path>
                    <path d="M-6.13187037e-17,56.5 C-6.13187037e-17,56.5 198.860207,181.507814 406.223845,56.5 C613.587484,-68.5078139 813,56.5 813,56.5" id="right-1-dots-copy-2" stroke="url(#linearGradient-6)" stroke-width="11" stroke-dasharray="21,75"></path>
                    <path d="M-6.13187037e-17,56.5590284 C-6.13187037e-17,56.5590284 198.860207,181.566842 406.223845,56.5590284 C613.587484,-68.4487855 813,56.5590284 813,56.5590284" id="left-1-dots-copy-2" stroke="url(#linearGradient-7)" stroke-width="9" stroke-dasharray="43,35"></path>
                    <path d="M-6.13187037e-17,56.5 C-6.13187037e-17,56.5 198.860207,181.507814 406.223845,56.5 C613.587484,-68.5078139 813,56.5 813,56.5" id="right-1-dots" stroke="url(#linearGradient-8)" stroke-dasharray="3"></path>
                    <path d="M-6.13187037e-17,56.5590284 C-6.13187037e-17,56.5590284 198.860207,181.566842 406.223845,56.5590284 C613.587484,-68.4487855 813,56.5590284 813,56.5590284" id="left-1-dots" stroke="url(#linearGradient-9)" stroke-dasharray="3"></path>
                </g>
                <g id="white-dots" transform="translate(151.000000, 178.000000)" fill="#FFFFFF" sketch:type="MSShapeGroup">
                    <circle id="Oval-1" cx="827" cy="27" r="26"></circle>
                    <circle id="Oval-1-Copy" cx="26" cy="26" r="26"></circle>
                    <circle id="Oval-1-Copy-2" cx="425.5" cy="25.5" r="19.5"></circle>
                </g>
                <g id="Copy" transform="translate(166.000000, 116.000000)" fill="#000000" sketch:alignment="middle" sketch:type="MSTextLayer">
                    <g id="horizontal" transform="translate(45.000000, 74.000000)" font-weight="normal" font-family="Montserrat" font-size="24">
                        <text id="Discover">
                            <tspan x="11.4948906" y="24">Discover</tspan>
                        </text>
                        <text id="Define">
                            <tspan x="204.630891" y="24">Define</tspan>
                        </text>
                        <text id="Design">
                            <tspan x="449.422891" y="24">Design</tspan>
                        </text>
                        <text id="Develop">
                            <tspan x="622.030891" y="24">Develop</tspan>
                        </text>
                    </g>
                    <g id="vertical" font-weight="526" font-family="Open Sans" font-size="18">
                        <text id="General-Problem" transform="translate(13.000000, 94.000000) rotate(-90.000000) translate(-13.000000, -94.000000) ">
                            <tspan x="-60.0283203" y="101">General Problem</tspan>
                        </text>
                        <text id="Specific-Problem" transform="translate(410.500000, 94.000000) rotate(-90.000000) translate(-410.500000, -94.000000) ">
                            <tspan x="338.579102" y="101">Specific Problem</tspan>
                        </text>
                        <text id="Specific-Solution" transform="translate(807.500000, 94.000000) rotate(-90.000000) translate(-807.500000, -94.000000) ">
                            <tspan x="736.29541" y="101">Specific Solution</tspan>
                        </text>
                    </g>
                </g>
                <g id="silly-circles" transform="translate(0.000000, 35.000000)" stroke-width="130" sketch:type="MSShapeGroup" stroke-dasharray="5">
                    <circle id="Oval-4-Copy-3" stroke="#BCC400" opacity="0.22" transform="translate(576.500000, 174.000000) rotate(-270.000000) translate(-576.500000, -174.000000) " cx="576.5" cy="174" r="169"></circle>
                    <circle id="Oval-4-Copy-4" stroke="#4990E2" opacity="0.22" transform="translate(984.000000, 174.000000) rotate(-270.000000) translate(-984.000000, -174.000000) " cx="984" cy="174" r="169"></circle>
                    <circle id="Oval-4-Copy-5" stroke="#D0011B" opacity="0.21770056" transform="translate(170.000000, 169.500000) rotate(-270.000000) translate(-170.000000, -169.500000) " cx="170" cy="169.5" r="169"></circle>
                </g>
            </g>
        </g>
    </g>
</svg>