<?xml version="1.0" encoding="UTF-8" standalone="no"?>
<svg width="552px" height="160px" viewBox="0 0 552 160" version="1.1" xmlns="http://www.w3.org/2000/svg" xmlns:xlink="http://www.w3.org/1999/xlink" xmlns:sketch="http://www.bohemiancoding.com/sketch/ns">
    <!-- Generator: Sketch 3.3.3 (12081) - http://www.bohemiancoding.com/sketch -->
    <title>floaty box + lilfloats</title>
    <desc>Created with Sketch.</desc>
    <defs></defs>
    <g id="Page-1" stroke="none" stroke-width="1" fill="none" fill-rule="evenodd" sketch:type="MSPage">
        <g id="Contact/skills/index" sketch:type="MSArtboardGroup" transform="translate(-71.000000, -297.000000)">
            <g id="floaty-box-+-lilfloats" sketch:type="MSLayerGroup" transform="translate(70.000000, 297.000000)">
                <g id="floaty-box" sketch:type="MSShapeGroup">
                    <path d="M89.7656581,53 L503,53 L434.591532,160 L1,160 L89.7656581,53 Z" id="Rectangle-13" stroke="#000000" stroke-dasharray="3,3"></path>
                    <path d="M89.7656581,27 C89.7656581,27 201.464844,41.8085938 300.421875,27 C399.378906,12.1914063 503,27 503,27 L434.591532,134 C434.591532,134 293.617188,119.296875 222.617188,134 C151.617188,148.703125 1,134 1,134 L89.7656581,27 Z" id="Rectangle-13-Copy-2" stroke="#4990E2" stroke-dasharray="4,4"></path>
                    <path d="M89.7656581,0 L503,0 L434.591532,107 L1,107 L89.7656581,0 Z" id="Rectangle-13-Copy" stroke="#000000" stroke-dasharray="3,3"></path>
                    <path d="M1.5,107.5 L1.5,158.5" id="Line" stroke="#000000" stroke-linecap="square"></path>
                    <path d="M434.5,107.5 L434.5,158.5" id="Line-Copy" stroke="#000000" stroke-linecap="square"></path>
                    <path d="M502.5,1.5 L502.5,52.5" id="Line-Copy-2" stroke="#000000" stroke-linecap="square"></path>
                    <path d="M90.5,1.5 L90.5,52.5" id="Line-Copy-3" stroke="#000000" stroke-linecap="square"></path>
                </g>
                <g id="lilfloats" transform="translate(434.000000, 0.000000)" sketch:type="MSShapeGroup">
                    <path d="M59.5,107.5 L59.5,158.5" id="Line-Copy-14" stroke="#000000" stroke-linecap="square"></path>
                    <path d="M118.5,2 L118.5,53" id="Line-Copy-15" stroke="#000000" stroke-linecap="square"></path>
                    <path d="M69,53 L119,53 L59.421875,160 L0,160 L69,53 Z" id="Rectangle-13-Copy-4" stroke="#000000" stroke-dasharray="3,3"></path>
                    <path d="M69,0 L119,0 L59.421875,107 L0,107 L69,0 Z" id="Rectangle-13-Copy-6" stroke="#000000" stroke-dasharray="3,3"></path>
                    <path d="M70.5,80.5 L64.5,68.5" id="Line" stroke="#4990E2" stroke-linecap="square" transform="translate(67.500000, 74.500000) scale(-1, 1) translate(-67.500000, -74.500000) "></path>
                </g>
            </g>
        </g>
    </g>
</svg>