<?xml version="1.0" encoding="UTF-8" standalone="no"?>
<svg width="502px" height="160px" viewBox="0 0 502 160" version="1.1" xmlns="http://www.w3.org/2000/svg" xmlns:xlink="http://www.w3.org/1999/xlink" xmlns:sketch="http://www.bohemiancoding.com/sketch/ns">
    <!-- Generator: Sketch 3.3.3 (12081) - http://www.bohemiancoding.com/sketch -->
    <title>floaty box</title>
    <desc>Created with Sketch.</desc>
    <defs></defs>
    <g id="Page-1" stroke="none" stroke-width="1" fill="none" fill-rule="evenodd" sketch:type="MSPage">
        <g id="Contact/skills/index" sketch:type="MSArtboardGroup" transform="translate(-171.000000, -297.000000)">
            <g id="floaty-box" sketch:type="MSLayerGroup" transform="translate(170.000000, 297.000000)">
                <path d="M89.7656581,53 L503,53 L434.591532,160 L1,160 L89.7656581,53 Z" id="Rectangle-13" stroke="#000000" stroke-dasharray="3,3" sketch:type="MSShapeGroup"></path>
                <path d="M89.7656581,27 C89.7656581,27 201.464844,41.8085938 300.421875,27 C399.378906,12.1914063 503,27 503,27 L434.591532,134 C434.591532,134 293.617188,119.296875 222.617188,134 C151.617188,148.703125 1,134 1,134 L89.7656581,27 Z" id="Rectangle-13-Copy-2" stroke="#4990E2" stroke-dasharray="4,4" sketch:type="MSShapeGroup"></path>
                <path d="M89.7656581,0 L503,0 L434.591532,107 L1,107 L89.7656581,0 Z" id="Rectangle-13-Copy" stroke="#000000" stroke-dasharray="3,3" sketch:type="MSShapeGroup"></path>
                <path d="M1.5,107.5 L1.5,158.5" id="Line" stroke="#000000" stroke-linecap="square" sketch:type="MSShapeGroup"></path>
                <path d="M434.5,107.5 L434.5,158.5" id="Line-Copy" stroke="#000000" stroke-linecap="square" sketch:type="MSShapeGroup"></path>
                <path d="M502.5,1.5 L502.5,52.5" id="Line-Copy-2" stroke="#000000" stroke-linecap="square" sketch:type="MSShapeGroup"></path>
                <path d="M90.5,1.5 L90.5,52.5" id="Line-Copy-3" stroke="#000000" stroke-linecap="square" sketch:type="MSShapeGroup"></path>
            </g>
        </g>
    </g>
</svg>